<?xml version="1.0" encoding="UTF-8"?>
<svg width="14px" height="14px" viewBox="0 0 14 14" version="1.1" xmlns="http://www.w3.org/2000/svg" xmlns:xlink="http://www.w3.org/1999/xlink">
    <!-- Generator: Sketch 53.2 (72643) - https://sketchapp.com -->
    <title>ic_cross</title>
    <desc>Created with Sketch.</desc>
    <g id="Page-1" stroke="none" stroke-width="1" fill="none" fill-rule="evenodd">
        <g id="Marketplace-Product-Page-Slider-Modal" transform="translate(-102.000000, -826.000000)" fill="#4382EB">
            <g id="add-to-cart-bar" transform="translate(0.000000, 796.000000)">
                <g id="add-item-cart" transform="translate(92.000000, 20.000000)">
                    <path d="M23.2758621,15.7931034 L18.2068966,15.7931034 L18.2068966,10.7241379 C18.2068966,10.0572971 17.6668408,10 17,10 C16.3331592,10 15.7931034,10.0572971 15.7931034,10.7241379 L15.7931034,15.7931034 L10.7241379,15.7931034 C10.0572971,15.7931034 10,16.3331592 10,17 C10,17.6668408 10.0572971,18.2068966 10.7241379,18.2068966 L15.7931034,18.2068966 L15.7931034,23.2758621 C15.7931034,23.9427029 16.3331592,24 17,24 C17.6668408,24 18.2068966,23.9427029 18.2068966,23.2758621 L18.2068966,18.2068966 L23.2758621,18.2068966 C23.9427029,18.2068966 24,17.6668408 24,17 C24,16.3331592 23.9427029,15.7931034 23.2758621,15.7931034 L23.2758621,15.7931034 Z" id="ic_cross"></path>
                </g>
            </g>
        </g>
    </g>
</svg>