<?xml version="1.0" encoding="UTF-8"?>
<svg width="57px" height="57px" viewBox="0 0 57 57" version="1.1" xmlns="http://www.w3.org/2000/svg" xmlns:xlink="http://www.w3.org/1999/xlink">
    <!-- Generator: Sketch 53.2 (72643) - https://sketchapp.com -->
    <title>ic_shopping_cart</title>
    <desc>Created with Sketch.</desc>
    <g id="Page-1" stroke="none" stroke-width="1" fill="none" fill-rule="evenodd">
        <g id="Marketplace-Shopping-cart-Empty-Modal" transform="translate(-156.000000, -212.000000)">
            <g id="ic_shopping_cart" transform="translate(154.000000, 207.000000)">
                <polygon id="Shape" points="0 0 67 0 67 67 0 67"></polygon>
                <path d="M19.5416667,50.25 C16.4708333,50.25 13.98625,52.7625 13.98625,55.8333333 C13.98625,58.9041667 16.4708333,61.4166667 19.5416667,61.4166667 C22.6125,61.4166667 25.125,58.9041667 25.125,55.8333333 C25.125,52.7625 22.6125,50.25 19.5416667,50.25 L19.5416667,50.25 Z M2.79166667,5.58333333 L2.79166667,11.1666667 L8.375,11.1666667 L18.425,32.3554167 L14.65625,39.195 C14.2095833,39.9766667 13.9583333,40.8979167 13.9583333,41.875 C13.9583333,44.9458333 16.4708333,47.4583333 19.5416667,47.4583333 L53.0416667,47.4583333 L53.0416667,41.875 L20.7141667,41.875 C20.3233333,41.875 20.01625,41.5679167 20.01625,41.1770833 L20.1,40.8420833 L22.6125,36.2916667 L43.4104167,36.2916667 C45.5041667,36.2916667 47.3466667,35.1470833 48.2958333,33.41625 L58.29,15.2983333 C58.5133333,14.9075 58.625,14.4329167 58.625,13.9583333 C58.625,12.4229167 57.36875,11.1666667 55.8333333,11.1666667 L14.5445833,11.1666667 L11.9204167,5.58333333 L2.79166667,5.58333333 L2.79166667,5.58333333 Z M47.4583333,50.25 C44.3875,50.25 41.9029167,52.7625 41.9029167,55.8333333 C41.9029167,58.9041667 44.3875,61.4166667 47.4583333,61.4166667 C50.5291667,61.4166667 53.0416667,58.9041667 53.0416667,55.8333333 C53.0416667,52.7625 50.5291667,50.25 47.4583333,50.25 L47.4583333,50.25 Z" id="Shape" fill="#D6DAE1"></path>
            </g>
        </g>
    </g>
</svg>