<?xml version="1.0" encoding="UTF-8"?>
<svg width="37px" height="25px" viewBox="0 0 37 25" version="1.1" xmlns="http://www.w3.org/2000/svg" xmlns:xlink="http://www.w3.org/1999/xlink">
    <!-- Generator: Sketch 53.2 (72643) - https://sketchapp.com -->
    <title>ic_visa_symbol copy</title>
    <desc>Created with Sketch.</desc>
    <defs>
        <linearGradient x1="100%" y1="50%" x2="0%" y2="50%" id="linearGradient-1">
            <stop stop-color="#132C94" offset="0%"></stop>
            <stop stop-color="#1A1F5D" offset="100%"></stop>
        </linearGradient>
    </defs>
    <g id="Page-1" stroke="none" stroke-width="1" fill="none" fill-rule="evenodd">
        <g id="Marketplace-Pay-Screen" transform="translate(-32.000000, -262.000000)">
            <g id="Funding-Source-Item-Copy" transform="translate(16.000000, 254.000000)">
                <g id="ic_visa_symbol-copy" transform="translate(16.000000, 8.000000)">
                    <g id="Visa" fill="url(#linearGradient-1)">
                        <path d="M34.6875,0.0795454545 L2.3125,0.0795454545 C1.040625,0.0795454545 0,1.12272727 0,2.39772727 L0,22.1022727 C0,23.3772727 1.040625,24.4204545 2.3125,24.4204545 L34.6875,24.4204545 C35.959375,24.4204545 37,23.3772727 37,22.1022727 L37,2.39772727 C37,1.12272727 35.959375,0.0795454545 34.6875,0.0795454545 Z" id="Shape"></path>
                    </g>
                    <g id="Visa_3_" transform="translate(3.500000, 7.500000)" fill="#FFFFFF">
                        <path d="M18.0833333,3.9 C17.2666667,3.43333333 16.8,3.2 16.8,2.73333333 C16.8,2.38333333 17.2666667,1.91666667 18.0833333,1.91666667 C18.7833333,1.91666667 19.3666667,2.03333333 19.8333333,2.26666667 L20.0666667,2.38333333 L20.4166667,0.4 C19.95,0.166666667 19.25,0.05 18.4333333,0.05 C16.2166667,0.05 14.5833333,1.33333333 14.5833333,3.08333333 C14.5833333,4.36666667 15.75,5.06666667 16.5666667,5.53333333 C17.5,6 17.7333333,6.23333333 17.7333333,6.7 C17.7333333,7.28333333 17.0333333,7.63333333 16.3333333,7.63333333 C15.4,7.63333333 14.9333333,7.51666667 14.2333333,7.16666667 L13.8833333,7.05 L13.5333333,9.03333333 C14.1166667,9.26666667 15.05,9.5 16.1,9.5 C18.4333333,9.5 20.0666667,8.33333333 20.0666667,6.46666667 C20.0666667,5.3 19.4833333,4.48333333 18.0833333,3.9 Z M26.1333333,0.283333333 L24.3833333,0.283333333 C23.8,0.283333333 23.45,0.4 23.2166667,0.983333333 L19.8333333,9.26666667 L22.1666667,9.26666667 C22.1666667,9.26666667 22.5166667,8.1 22.6333333,7.86666667 C22.8666667,7.86666667 25.2,7.86666667 25.55,7.86666667 C25.6666667,8.21666667 25.7833333,9.26666667 25.7833333,9.26666667 L28,9.26666667 L26.1333333,0.283333333 Z M23.3333333,6.11666667 C23.5666667,5.65 24.2666667,3.55 24.2666667,3.55 C24.2666667,3.55 24.5,3.08333333 24.6166667,2.73333333 L24.7333333,3.55 C24.7333333,3.55 25.2,5.65 25.2,6.11666667 L23.3333333,6.11666667 Z M9.91666667,9.26666667 L12.1333333,9.26666667 L13.5333333,0.283333333 L11.3166667,0.283333333 L9.91666667,9.26666667 Z M2.33831986,1.35327945 C1.64519491,0.940988368 0.86122841,0.615307102 0,0.4 L0,0.166666667 L3.61666667,0.166666667 C4.08333333,0.283333333 4.55,0.4 4.66666667,0.983333333 L5.48333333,5.18333333 C5.08097515,3.90919907 4.25461381,2.75070203 3.09287329,1.86293416 C4.17962207,2.74551307 5.10287756,4.04196602 5.48333333,5.18333333 L5.71666667,6.46666667 L7.93333333,0.283333333 L10.3833333,0.283333333 L6.76666667,9.26666667 L4.31666667,9.26666667 L2.33831986,1.35327945 Z" id="Combined-Shape"></path>
                    </g>
                    <g id="Visa_4_" transform="translate(3.500000, 7.500000)"></g>
                </g>
            </g>
        </g>
    </g>
</svg>